<?xml version="1.0" encoding="UTF-8"?>
<!-- Generator: Adobe Illustrator 14.0.0, SVG Export Plug-In . SVG Version: 6.00 Build 43363)  -->
<!DOCTYPE svg PUBLIC "-//W3C//DTD SVG 1.1//EN" "http://www.w3.org/Graphics/SVG/1.1/DTD/svg11.dtd">
<svg version="1.1" id="Layer_0_xA0_Image_1_" xmlns="http://www.w3.org/2000/svg" xmlns:xlink="http://www.w3.org/1999/xlink" x="0px" y="0px" width="364.667px" height="170px" viewBox="0 0 364.667 170" enable-background="new 0 0 364.667 170" xml:space="preserve">
<g>
	<path stroke="#000000" d="M196.447,117.807c0.27,1.021-0.58,6.91-0.96,8.4c-0.312,1.2-1.261,2.3-1.92,3.6   c-0.649,1.28-1.04,2.69-1.681,3.84c-2.641,4.711-5.1,8.82-7.68,14.4c-0.541,1.17-1.121,2.65-1.681,3.84   c-0.65,1.37-1.181,2.98-1.681,3.6c-2.699,3.361-14.87,4.15-20.88,2.881c1.46-4.76,5.46-8.381,9.84-11.28   c1.63-1.08,3.29-1.94,3.841-3.12c0.939-2.01,0.869-5.04,1.439-7.439c0.71-3.03,1.97-5.68,1.44-8.641   c-0.78-4.359-3.95-8.83-4.561-13.439c2.7-0.961,6.91-2.11,10.32-3.12c1.559-0.46,3.189-1.38,5.28-0.96   c1.729,0.35,3.34,2.6,4.561,3.6C193.436,115.046,196.005,116.137,196.447,117.807z"/>
	<path stroke="#000000" d="M93.727,126.207c0.2-0.04,0.23,0.09,0.24,0.24c-1.39,7.15-1.36,14.08-5.28,18.479   c-2.61,2.94-5.89,5.81-9.12,8.4c-2.07,1.659-3.21,2.72-5.76,3.84c-1.47,0.649-3.55,2.13-5.76,0.96   c-1.38-8.779,6.07-14.17,6.48-23.279c6.18-3.101,12.79-5.771,18.96-8.881C93.687,125.926,93.716,126.057,93.727,126.207z"/>
	<path stroke="#000000" d="M40.687,43.167c-6.01,1.35-11.08,3.64-15.12,6.96c-1.68-2.14-2.61-4.53-3.84-6.96   c-1.12-2.22-3.06-4.63-2.88-7.92c6.11-1.94,13.96-1.16,18.72,1.2C38.396,38.756,40.477,41.037,40.687,43.167z"/>
	<path stroke="#000000" d="M333.487,10.046c7.83-0.47,18.06-1.25,20.88,5.52c-2.01,1.71-4.38,2.26-6.959,2.64   c-4.191,0.62-8.511,0.83-12.722,1.2c-7.521,0.66-15.229,1.78-22.079,3.6c-0.4,0.1-0.779,0.62-1.199,0.72   c-0.49,0.12-1.16-0.13-1.682,0c-1.859,0.46-3.699,1.33-5.52,1.92c-1.961,0.64-3.94,0.83-5.761,1.44c-2.19,0.74-4.3,1.76-6.479,2.64   c-2.131,0.86-4.33,1.84-6.479,2.64c-4.391,1.64-8.489,3.54-12.721,5.28c-4.08,1.68-8.13,3.88-12,6c-1.55,0.85-3.029,1.53-4.56,2.4   c-1.34,0.76-2.67,1.77-4.08,2.64c-0.951,0.59-1.92,0.88-2.881,1.44c-0.699,0.41-1.25,1.21-1.92,1.68   c-4.75,3.3-10.57,6.32-16.08,9.12c-0.119,1.71,1.32,2.7,1.92,4.08c1.791,4.12,2.08,11.95,1.44,17.28   c-0.41,3.37-1.12,5.37-1.921,8.159c-0.398,1.381-0.551,2.801-0.96,4.08c-0.75,2.371-1.63,4.761-2.64,7.44   c-0.33,0.88-0.891,1.521-0.961,2.16c-0.25,2.34,0.91,5.17,1.68,7.44c0.781,2.3,1.691,4.709,1.921,6.959   c0.62,6.021-1.909,9.951-4.079,13.681c-1.41,2.42-3.08,4.64-4.32,6.72c-2.869,4.82-5.34,9.391-7.68,14.16   c-4.171,1.83-9.092,5.13-14.4,6.721c-3.13,0.939-6.09,1.43-8.64,0c0.39-2.721,1.608-4.261,3.119-6.24   c1.75-2.291,4.221-5.211,6.721-6.961c1.931-1.35,4.351-1.83,5.279-3.6c0.671-1.279,0.94-4.1,1.2-6.24   c0.601-4.899,0.959-9.83,0.24-14.64c-2.15-1.96-5.061-2.431-7.44-3.84c-0.56-0.33-0.989-0.979-1.681-1.44   c-3.319-2.21-6.59-5.039-9.6-7.92c-1.261-1.21-2.721-2.92-3.84-4.56c-0.641-0.94-0.801-3-2.641-2.88   c-1.38,2.25,1.5,3.99,1.681,6.24c-9.83,2.229-19.78,6.739-30.721,8.159c-0.61,0.08-1.35-0.09-1.92,0   c-1.35,0.22-2.52,1.011-3.84,1.2c-4.98,0.7-10.12,0.391-15.36,0c-8.13-0.6-16.72-0.891-23.76-3.359c0.05-2.371,2.8-4.07,3.12-6.961   c-1.7-0.289-2.76,1.73-3.6,2.881c-0.89,1.209-2.04,2.699-2.64,4.08c-0.73,1.68-0.6,3.6-1.68,4.799c-1.14,1.271-6.33,2.86-8.4,3.601   c-3.19,1.14-5.88,2.72-8.16,3.84c-8.63,4.22-16.52,7.12-24.96,11.04c-1.42,0.66-2.95,1.03-4.32,1.68c-6.49,3.08-13.3,6.681-18,12   c-1.74,1.541-3.82,2.86-6,4.32c-3,2.02-8.11,5.2-13.2,4.08c0.03-13.1,10-19.49,18.96-25.439c6.45-4.28,11.26-8.66,17.52-14.16   c1.75-1.53,3.4-3.12,5.28-5.28c1.6-1.84,3.87-4.64,3.84-6.479c-0.04-2.931-3.02-4.931-4.32-7.44c-0.71-1.38-0.76-2.771-1.44-4.32   c3.19-2.09,8.09-3.739,8.4-7.92c-1.47-0.67-2.44,0.95-3.36,1.681c-1.03,0.819-2.24,1.42-2.88,2.399   c-5.39,3.11-11.92,5.431-21.36,4.8c-4.36-0.29-9.02-1.38-12.96-2.88c-3.83-1.45-7.8-3.399-10.08-5.521   c-9.34-8.689-3.78-24.209,2.88-32.399c0.93-1.14,2.41-2.18,3.6-3.36c2.83-2.8,6.14-4.42,10.56-6c2.14-0.76,5.21-0.74,6.72-3.12   c-2.28-5.96-5.92-10.56-7.44-17.28c8.55-3.97,21.67,2.59,26.4,8.88c1.03,1.37,1.21,3.11,2.4,4.08c0.48,2.8,1.25,5.31,2.64,7.2   c1.66,0.3,0.71-2.01,1.92-2.16c2.67,0,4.69,1.89,6.72,2.64c0.8,0.3,1.76,0.15,2.64,0.48c1.01,0.38,2.09,1.14,3.12,1.68   c1.06,0.55,2.11,1.14,3.12,1.68c4.39,2.34,8.34,5.39,14.88,6c3.72,0.35,7.94,0.56,11.52,0c3.86-0.6,7.66-2.11,11.52-3.36   c5.57-1.81,11.14-3.76,17.04-5.04c1.86-0.4,3.85-0.94,5.76-1.44c1.99-0.52,4.07-0.81,6.24-1.2c5.78-1.04,11.37-1.56,18-1.44   c4.271,0.08,8.68,0.25,12.959,0.72c1.09,0.12,2,0.4,3.121,0.48c6.819,0.47,17.119,3.65,23.76,6.24c2.609,1.02,5.479,1.85,8.16,2.88   c1.66,0.63,3.199,1.4,4.319,1.2c1.921-0.34,3.399-3.43,4.8-4.56c0.9-0.73,2.061-1.19,3.121-1.92c2.629-1.8,5.648-4.08,8.639-6   c4-2.57,7.73-5.59,11.761-7.92c9.229-5.33,19.36-10.35,30.479-13.92c2.48-0.8,5.07-1.46,7.68-2.16c3.812-1.01,7.25-2.42,11.041-3.6   c2.55-0.8,5.41-1.1,8.16-1.68C316.147,12.437,323.697,10.637,333.487,10.046z"/>
	<path stroke="#000000" d="M191.886,133.646c0.641-1.15,1.029-2.561,1.681-3.84c0.659-1.301,1.608-2.4,1.92-3.601   c0.38-1.49,1.229-7.38,0.96-8.399c-0.439-1.671-3.011-2.761-4.32-3.841c-1.219-1-2.83-3.25-4.56-3.6   c-2.091-0.421-3.721,0.5-5.28,0.96c-3.41,1.01-7.62,2.16-10.32,3.119c0.61,4.611,3.78,9.08,4.561,13.441   c0.529,2.959-0.73,5.609-1.44,8.639c-0.57,2.4-0.5,5.431-1.439,7.44c-0.551,1.181-2.211,2.04-3.841,3.12   c-4.38,2.9-8.38,6.52-9.84,11.28c6.01,1.271,18.181,0.479,20.88-2.88c0.5-0.62,1.03-2.23,1.681-3.601   c0.561-1.19,1.141-2.67,1.68-3.84C186.787,142.466,189.248,138.355,191.886,133.646z M74.526,134.848   c-0.41,9.109-7.86,14.5-6.48,23.279c2.21,1.17,4.29-0.311,5.76-0.96c2.55-1.12,3.69-2.181,5.76-3.84c3.23-2.591,6.51-5.46,9.12-8.4   c3.92-4.399,3.89-11.329,5.28-18.479c-0.01-0.15-0.04-0.28-0.24-0.24c-0.01-0.15-0.04-0.28-0.24-0.24   C87.316,129.077,80.707,131.747,74.526,134.848z M37.566,36.446c-4.76-2.36-12.61-3.14-18.72-1.2c-0.18,3.29,1.76,5.7,2.88,7.92   c1.23,2.43,2.16,4.82,3.84,6.96c4.04-3.32,9.11-5.61,15.12-6.96C40.477,41.037,38.396,38.756,37.566,36.446z M36.847,46.767   c-4.42,1.58-7.73,3.2-10.56,6c-1.19,1.18-2.67,2.22-3.6,3.36c-6.66,8.19-12.22,23.71-2.88,32.4c2.28,2.119,6.25,4.07,10.08,5.52   c3.94,1.5,8.6,2.59,12.96,2.88c9.44,0.63,15.97-1.69,21.36-4.8c0.64-0.98,1.85-1.58,2.88-2.4c0.92-0.729,1.89-2.35,3.36-1.68   c-0.31,4.18-5.21,5.83-8.4,7.92c0.68,1.551,0.73,2.94,1.44,4.32c1.3,2.51,4.28,4.51,4.32,7.439c0.03,1.84-2.24,4.641-3.84,6.48   c-1.88,2.16-3.53,3.75-5.28,5.279c-6.26,5.5-11.07,9.881-17.52,14.16c-8.96,5.951-18.93,12.34-18.96,25.44   c5.09,1.12,10.2-2.06,13.2-4.08c2.18-1.46,4.26-2.78,6-4.319c4.7-5.32,11.51-8.92,18-12c1.37-0.65,2.9-1.021,4.32-1.681   c8.44-3.92,16.33-6.819,24.96-11.04c2.28-1.119,4.97-2.699,8.16-3.84c2.07-0.74,7.26-2.33,8.4-3.6c1.08-1.2,0.95-3.12,1.68-4.801   c0.6-1.379,1.75-2.869,2.64-4.08c0.84-1.149,1.9-3.17,3.6-2.879c-0.32,2.89-3.07,4.59-3.12,6.959c7.04,2.471,15.63,2.76,23.76,3.36   c5.24,0.39,10.38,0.7,15.36,0c1.32-0.19,2.49-0.979,3.84-1.2c0.57-0.09,1.31,0.08,1.92,0c10.94-1.42,20.891-5.93,30.721-8.16   c-0.182-2.25-3.061-3.99-1.682-6.24c1.841-0.119,2,1.94,2.642,2.881c1.119,1.64,2.579,3.35,3.84,4.56   c3.011,2.88,6.279,5.71,9.601,7.921c0.689,0.459,1.119,1.109,1.68,1.439c2.381,1.41,5.29,1.88,7.439,3.84   c0.721,4.811,0.36,9.74-0.24,14.641c-0.26,2.14-0.528,4.959-1.199,6.239c-0.93,1.771-3.35,2.25-5.279,3.601   c-2.5,1.75-4.971,4.67-6.721,6.959c-1.51,1.98-2.729,3.521-3.119,6.24c2.551,1.43,5.51,0.94,8.641,0   c5.31-1.59,10.229-4.89,14.399-6.72c2.34-4.771,4.81-9.34,7.681-14.16c1.239-2.079,2.909-4.3,4.319-6.72   c2.17-3.73,4.699-7.66,4.079-13.68c-0.229-2.25-1.141-4.66-1.92-6.961c-0.77-2.27-1.93-5.1-1.68-7.439   c0.069-0.641,0.629-1.279,0.959-2.16c1.011-2.68,1.891-5.07,2.641-7.439c0.41-1.28,0.561-2.7,0.96-4.08   c0.801-2.79,1.511-4.79,1.921-8.16c0.641-5.33,0.35-13.16-1.439-17.28c-0.601-1.38-2.041-2.37-1.92-4.08   c5.51-2.8,11.33-5.82,16.08-9.12c0.67-0.47,1.219-1.27,1.92-1.68c0.959-0.56,1.93-0.85,2.879-1.44c1.41-0.87,2.74-1.88,4.08-2.64   c1.53-0.87,3.01-1.55,4.561-2.4c3.87-2.12,7.92-4.32,12-6c4.23-1.74,8.33-3.64,12.721-5.28c2.149-0.8,4.35-1.78,6.479-2.64   c2.182-0.88,4.291-1.9,6.48-2.64c1.819-0.61,3.801-0.8,5.76-1.44c1.82-0.59,3.66-1.46,5.521-1.92c0.521-0.13,1.19,0.12,1.681,0   c0.42-0.1,0.801-0.62,1.2-0.72c6.851-1.82,14.56-2.94,22.079-3.6c4.211-0.37,8.53-0.58,12.721-1.2c2.58-0.38,4.95-0.93,6.961-2.64   c-2.82-6.77-13.051-5.99-20.881-5.52c-9.789,0.59-17.34,2.39-25.439,4.08c-2.75,0.58-5.61,0.88-8.16,1.68   c-3.79,1.18-7.229,2.59-11.04,3.6c-2.608,0.7-5.199,1.36-7.681,2.16c-11.119,3.57-21.25,8.59-30.479,13.92   c-4.028,2.33-7.76,5.35-11.76,7.92c-2.99,1.92-6.011,4.2-8.64,6c-1.062,0.729-2.221,1.19-3.121,1.92   c-1.399,1.13-2.879,4.22-4.799,4.56c-1.121,0.2-2.66-0.57-4.32-1.2c-2.68-1.03-5.551-1.86-8.16-2.88   c-6.641-2.59-16.939-5.77-23.76-6.24c-1.12-0.08-2.03-0.36-3.12-0.48c-4.28-0.47-8.689-0.64-12.96-0.72   c-6.63-0.12-12.22,0.4-18,1.44c-2.17,0.39-4.25,0.68-6.24,1.2c-1.91,0.5-3.9,1.04-5.76,1.44c-5.9,1.28-11.47,3.23-17.04,5.04   c-3.86,1.25-7.66,2.76-11.52,3.36c-3.58,0.56-7.8,0.35-11.52,0c-6.54-0.61-10.49-3.66-14.88-6c-1.01-0.54-2.06-1.13-3.12-1.68   c-1.03-0.54-2.11-1.3-3.12-1.68c-0.88-0.33-1.84-0.18-2.64-0.48c-2.03-0.75-4.05-2.64-6.72-2.64c-1.21,0.15-0.26,2.46-1.92,2.16   c-1.39-1.89-2.16-4.4-2.64-7.2c-1.19-0.97-1.37-2.71-2.4-4.08c-4.73-6.29-17.85-12.85-26.4-8.88c1.52,6.72,5.16,11.32,7.44,17.28   C42.057,46.026,38.986,46.006,36.847,46.767z M27.006,31.646c3.07,0.13,5.93,0.83,8.64,0.96c0.2-1.34-2.35-4.56-1.92-6.72   c0.53-2.62,5.76-3.67,8.16-3.6c3.91,0.12,7.13,1.5,10.56,2.88c7.61,3.07,13.36,8.44,15.6,16.32c3.04,0.29,6.06,1.94,8.64,2.88   c1.25,0.46,2.67,0.49,3.84,0.96c1.03,0.41,2.09,1.28,3.12,1.92c6.83,4.23,14.52,8.52,26.64,7.2c2.6-0.28,5.01-1.41,7.68-2.16   c7.46-2.09,14.9-5.02,22.56-6.72c11.09-2.46,21.51-4.71,34.8-3.84c4.21,0.28,8.759,0.9,13.2,1.44c4.22,0.52,8.011,1.94,11.521,2.88   c4.93,1.32,11.16,3.16,16.32,5.28c1.84,0.75,4.51,2.01,5.279,1.92c1.01-0.11,1.979-1.75,3.359-2.88   c3.359-2.74,7.97-5.66,11.039-7.68c2.5-1.64,4.951-3.52,7.44-5.04c2.011-1.23,3.63-2.21,5.761-3.6   c5.02-3.26,11.389-6.28,17.52-8.88c1.75-0.74,3.33-1.94,5.04-2.64c2.46-1,5.271-1.55,7.92-2.4c2.601-0.83,5.101-1.88,7.681-2.64   c5.24-1.54,10.5-3.24,15.84-4.56c5.541-1.37,11.08-2.44,16.801-3.6c2.949-0.6,5.899-1.23,8.879-1.44   c3.25-0.22,6.91-0.03,10.08-0.479c1.971-0.28,5.23-0.1,7.44,0.24c4.899,0.76,10.529,3.9,10.319,7.68   c-0.199,3.65-6.898,5.14-11.04,5.52c-1.011,0.09-2.858-0.33-3.841-0.24c-1.438,0.14-2.858,0.79-4.318,0.96   c-7.449,0.87-15.471,1.6-21.841,3.12c-6.649,1.58-12.181,3.43-18.239,5.52c-0.57,0.2-1.16,0.05-1.681,0.24   c-2.22,0.8-5.47,2.49-8.159,3.6c-1.671,0.69-3.432,1.27-5.04,1.92c-1.61,0.65-2.989,1.46-4.562,2.16   c-3.119,1.39-6.459,2.54-9.359,4.08c-5.989,3.19-11.811,6.29-17.52,9.6c-4.23,2.46-8.25,5.33-12.48,7.92   c-1.42,0.87-2.85,1.55-4.079,2.64c1.869,5.03,2.699,10.41,2.64,15.6c-0.08,7.25-2.629,14.04-4.8,20.4   c-0.319,0.93-0.62,2.13-0.96,3.12c-0.391,1.14-0.9,2.35-0.96,3.119c-0.16,2.24,1.021,4.771,1.681,6.961   c1.1,3.619,2.459,8.279,1.439,13.199c-0.32,1.53-1.08,2.57-1.921,4.08c-0.699,1.25-1.239,2.82-1.92,4.08   c-1.38,2.57-3.271,4.881-4.56,7.2c-2.9,5.22-5.271,10.29-8.4,15.12c-3.87,1.439-8.01,4.5-12.479,6   c-0.84,0.279-1.771,0.18-2.641,0.48c-1.449,0.51-3.54,1.489-6,1.439c-2.14-0.05-4.67-0.78-5.279-2.16   c-1.34-3.04,1.649-7.029,3.601-9.359c0.99-1.181,2.209-2.271,3.359-3.36c1.301-1.22,2.381-2.57,3.359-3.36   c1.511-1.21,4.351-2.39,5.039-4.08c0.531-1.289,0.48-3.3,0.722-5.039c0.528-3.871,1.199-7.791,0.239-12.24   c-2.75-1.33-5.27-2.891-7.92-4.32c-0.66,2.52-0.67,5.689-1.439,8.16c-0.41,1.32-1.181,2.439-1.92,3.84   c-0.65,1.22-1.029,2.68-1.682,3.84c-1.309,2.33-3,4.48-4.318,6.96c-1.301,2.44-2.199,5.37-3.359,7.92   c-0.521,1.14-1.391,2.39-1.92,3.601c-0.641,1.459-0.98,3.02-1.681,3.84c-1.011,1.189-3.94,2.21-6.721,2.88   c-4.26,1.03-8.109,1.33-13.439,0.96c-4.53-0.32-5.9-1.641-4.08-5.28c2.82-5.63,8.6-9.819,13.439-13.68   c0.341-2.261,0.511-4.21,0.96-6.24c0.62-2.79,2.011-5.19,1.44-8.16c-0.4-2.09-1.56-4.14-2.4-6.239c-0.88-2.201-1.1-4.48-2.159-6.48   c-2.41,0.3-4.771,1.63-7.44,2.16c-1.75,0.34-3.65,0.34-5.52,0.72c-1.78,0.36-3.46,0.67-5.28,0.96c-3.58,0.57-7.49,1.221-11.04,1.2   c-4.22-0.021-8.91-0.931-13.44-1.2c-6.63-0.39-12.74-1.01-17.76-2.88c-1.64,1.5-1.42,3.511-3.12,4.8   c-2.61,1.98-6.76,1.961-9.36,4.08c-1.19,5.93-1.75,12.49-3.36,18c-3.07,3.93-7,7.83-11.04,11.28c-1.28,1.09-2.55,2.479-3.84,3.36   c-3.49,2.379-13.26,6.879-12.96-1.44c0.26-7.149,5.87-13.39,6.72-19.92c-2.03-0.261-3.75,1.149-5.52,1.92   c-3.58,1.55-7.32,2.91-11.04,4.8c-2.44,1.24-4.78,2.62-6.72,4.32c-1.17,1.02-2.55,1.779-3.84,2.88c-0.58,0.49-0.92,1.2-1.44,1.681   c-1.13,1.039-2.55,1.889-3.84,2.879c-1.26,0.971-2.44,2.16-3.6,2.881c-1.2,0.75-2.82,1.149-4.32,1.92   c-1.41,0.72-2.71,1.83-4.08,2.16c-2.45,0.59-6.42,0.209-7.44-0.961c-1.68-1.92-0.2-4.399-0.24-7.199c1.29-3.83,3.27-6.83,5.52-9.84   c0.86-1.15,1.53-2.451,2.4-3.36c1.37-1.431,3.31-2.511,5.04-3.841c1.66-1.279,3.3-2.479,5.04-3.6c5.36-3.46,10.09-7.4,14.88-11.52   c4.51-3.881,9.49-7.74,12.48-13.44c-1.47-3.729-4.05-6.35-5.04-10.56c-5.25,1.02-10.1,2.63-16.8,2.16   c-13.09-0.92-28.31-6.98-30.72-18.24c-0.93-4.36-0.17-10.27,1.68-15.36c2.02-5.56,5.37-9.43,8.88-13.92   c-1.34-2.98-2.65-5.51-4.32-8.88c-1.2-2.43-3.97-7.14-1.68-9.6C19.046,31.807,23.376,31.486,27.006,31.646z"/>
</g>
</svg>